<?xml version="1.0" standalone="no"?><!DOCTYPE svg PUBLIC "-//W3C//DTD SVG 1.1//EN" "http://www.w3.org/Graphics/SVG/1.1/DTD/svg11.dtd"><svg t="1608262879143" class="icon" viewBox="0 0 1024 1024" version="1.1" xmlns="http://www.w3.org/2000/svg" p-id="6756" width="32" height="32" xmlns:xlink="http://www.w3.org/1999/xlink"><defs><style type="text/css"></style></defs><path d="M498.43 686.01m-245.28 0a245.28 245.28 0 1 0 490.56 0 245.28 245.28 0 1 0-490.56 0Z" fill="#FFC600" p-id="6757"></path><path d="M181.01 94.46v259.71l258.62 94.14c18.76-4.69 38.6-7.57 58.79-7.57 20.2 0 40.04 2.89 58.79 7.57l258.62-94.14V94.46H181.01z" fill="#949BA6" p-id="6758"></path><path d="M498.43 354.16m-14.43 0a14.43 14.43 0 1 0 28.86 0 14.43 14.43 0 1 0-28.86 0Z" fill="#FFFFFF" opacity=".7" p-id="6759"></path><path d="M613.86 351.64c-5.77 0-11.54-3.61-13.71-9.38-2.89-7.57 1.08-15.87 8.66-18.4l144.28-52.3c7.57-2.89 15.87 1.08 18.4 8.66 2.89 7.57-1.08 15.87-8.66 18.4l-144.28 52.3c-1.45 0.72-2.89 0.72-4.69 0.72zM383.01 351.64c-1.8 0-3.25-0.36-5.05-0.72l-144.28-52.3c-7.57-2.89-11.18-10.82-8.66-18.4 2.89-7.57 11.18-11.18 18.4-8.66l144.28 52.3c7.57 2.89 11.18 10.82 8.66 18.4-1.81 5.77-7.58 9.38-13.35 9.38z" fill="#DFE1E4" p-id="6760"></path><path d="M815.85 307.99L554.7 402.86c-18.4-3.61-37.15-5.77-56.27-5.77-19.12 0-38.23 1.8-56.27 5.77l-261.15-94.87v46.17l258.62 94.14c18.76-4.69 38.6-7.57 58.79-7.57 20.2 0 40.04 2.89 58.79 7.57l258.62-94.14v-46.17zM181.01 94.46h634.84v43.28H181.01z" fill="#717582" p-id="6761"></path><path d="M440.72 447.95c18.4-4.33 37.87-7.21 57.71-7.21 19.84 0 39.32 2.52 57.71 7.21V94.46H440.72v353.49z" fill="#FFC600" p-id="6762"></path><path d="M498.43 397.45c-19.84 0-38.96 2.16-57.71 5.77v44.73c18.4-4.33 37.87-7.21 57.71-7.21 19.84 0 39.32 2.52 57.71 7.21v-44.73c-18.75-3.61-37.87-5.77-57.71-5.77zM440.72 94.46h115.43v43.28H440.72zM498.43 512.87c-95.59 0-173.14 77.55-173.14 173.14s77.55 173.14 173.14 173.14 173.14-77.55 173.14-173.14-77.55-173.14-173.14-173.14z m-86.57 274.14c31.74 0 57.71-25.97 57.71-57.71V556.16h57.71V729.3c0 31.74 25.97 57.71 57.71 57.71H411.86z" fill="#FFA100" p-id="6763"></path><path d="M230.79 792.78c-2.89-7.57-11.18-11.18-18.76-7.94-7.57 2.89-10.82 11.54-7.94 18.76 22.36 55.55 59.88 103.88 108.93 139.23 2.52 1.8 5.41 2.89 8.3 2.89 4.33 0 9.02-2.16 11.54-5.77 4.69-6.49 3.25-15.51-3.25-20.2-44.35-32.47-78.62-76.47-98.82-126.97zM405.73 506.74c-7.21 3.61-9.74 12.26-6.13 19.48 3.61 7.21 12.26 9.74 19.48 6.13 67.45-34.63 148.61-22.36 201.99 31.38 67.45 67.45 67.45 177.47 0 244.92-32.82 32.82-76.11 50.5-122.28 50.5s-89.82-18.04-122.28-50.5c-53.38-53.38-66.01-134.54-31.38-201.99 3.61-7.21 0.72-15.87-6.13-19.48-7.21-3.61-15.87-0.72-19.48 6.13-40.4 78.63-25.97 173.14 36.43 235.54 37.87 38.23 88.37 59.16 142.48 59.16s104.6-20.92 142.84-59.16c78.63-78.63 78.63-207.04 0-285.68-62.4-62.4-157.27-77.19-235.54-36.43z" fill="#090418" p-id="6764"></path><path d="M365.69 553.27m-14.43 0a14.43 14.43 0 1 0 28.86 0 14.43 14.43 0 1 0-28.86 0Z" fill="#090418" p-id="6765"></path><path d="M844.71 80.03H152.15c-7.94 0-14.43 6.49-14.43 14.43s6.49 14.43 14.43 14.43h14.43v245.28c0 6.13 3.97 11.54 9.38 13.71l219.67 79.72c-92.34 40.04-156.91 131.66-156.91 238.43 0 143.2 116.51 259.71 259.71 259.71s259.71-116.51 259.71-259.71c0-106.77-64.57-198.39-156.91-238.43l219.67-79.72c5.77-2.16 9.38-7.57 9.38-13.71V108.89h14.43c7.94 0 14.43-6.49 14.43-14.43s-6.5-14.43-14.43-14.43z m-389.56 28.86h86.57v321.39c-14.07-2.52-28.5-3.97-43.28-3.97s-29.22 1.44-43.28 3.97V108.89zM195.44 344.06V108.89h230.85v319.22l-230.85-84.05z m533.84 341.95c0 127.33-103.52 230.85-230.85 230.85S267.58 813.34 267.58 686.01 371.1 455.16 498.43 455.16s230.85 103.52 230.85 230.85z m72.14-341.95L570.57 428.1V108.89h230.85v235.17z" fill="#090418" p-id="6766"></path><path d="M411.86 772.58c-7.94 0-14.43 6.49-14.43 14.43 0 7.94 6.49 14.43 14.43 14.43H585c7.94 0 14.43-6.49 14.43-14.43 0-7.94-6.49-14.43-14.43-14.43-23.81 0-43.28-19.48-43.28-43.28V556.16c0-7.94-6.49-14.43-14.43-14.43h-57.71c-7.94 0-14.43 6.49-14.43 14.43 0 23.81-19.48 43.28-43.28 43.28-7.94 0-14.43 6.49-14.43 14.43s6.49 14.43 14.43 14.43c16.23 0 31.02-5.77 43.28-14.79V729.3c0 23.8-19.48 43.28-43.29 43.28zM484 729.3V570.59h28.86V729.3c0 16.23 5.41 31.38 14.43 43.28h-57.71c9.01-11.9 14.42-27.05 14.42-43.28z" fill="#090418" p-id="6767"></path><path d="M195.44 686.01m-14.43 0a14.43 14.43 0 1 0 28.86 0 14.43 14.43 0 1 0-28.86 0Z" fill="#090418" p-id="6768"></path><path d="M200.85 743m-14.43 0a14.43 14.43 0 1 0 28.86 0 14.43 14.43 0 1 0-28.86 0Z" fill="#090418" p-id="6769"></path><path d="M873.56 152.17m-14.43 0a14.43 14.43 0 1 0 28.86 0 14.43 14.43 0 1 0-28.86 0Z" fill="#090418" p-id="6770"></path><path d="M873.56 209.88m-14.43 0a14.43 14.43 0 1 0 28.86 0 14.43 14.43 0 1 0-28.86 0Z" fill="#090418" p-id="6771"></path><path d="M873.56 267.6m-14.43 0a14.43 14.43 0 1 0 28.86 0 14.43 14.43 0 1 0-28.86 0Z" fill="#090418" p-id="6772"></path></svg>